<?xml version="1.0" standalone="no"?>
<!DOCTYPE svg PUBLIC "-//W3C//DTD SVG 20010904//EN"
 "http://www.w3.org/TR/2001/REC-SVG-20010904/DTD/svg10.dtd">
<svg version="1.0" xmlns="http://www.w3.org/2000/svg"
 width="300.000000pt" height="300.000000pt" viewBox="0 0 300.000000 300.000000"
 preserveAspectRatio="xMidYMid meet">
<metadata>
Created by potrace 1.10, written by Peter Selinger 2001-2011
</metadata>
<g transform="translate(0.000000,300.000000) scale(0.100000,-0.100000)"
fill="#ffffff" stroke="none">
<path d="M1043 2820 c-31 -52 -45 -106 -38 -141 5 -20 4 -29 -3 -25 -11 7 -23
-63 -13 -81 4 -7 5 -30 3 -52 l-4 -40 -25 16 c-21 14 -26 14 -33 3 -7 -11 -11
-8 -19 12 -10 26 -71 56 -90 44 -5 -4 -13 -1 -16 5 -8 12 -91 4 -135 -13 -24
-9 -22 -11 40 -43 36 -19 75 -34 88 -35 12 0 21 -6 20 -12 -2 -7 11 -20 29
-28 37 -18 62 -50 38 -50 -8 0 -15 -5 -15 -12 0 -6 -9 -3 -20 7 -16 15 -30 17
-77 12 -32 -4 -73 -11 -91 -18 -27 -9 -30 -14 -21 -25 17 -21 6 -27 -23 -13
-31 14 -53 4 -114 -53 -51 -47 -88 -103 -79 -118 4 -6 -1 -17 -10 -24 -15 -11
-40 -106 -28 -106 9 0 163 92 169 101 3 5 10 7 15 4 5 -4 9 5 9 19 0 14 5 26
10 26 6 0 10 -7 10 -15 0 -8 2 -15 5 -15 11 0 84 40 90 49 3 6 12 7 21 4 8 -3
33 3 55 12 30 14 42 16 51 7 9 -9 5 -12 -15 -12 -20 0 -44 -16 -87 -58 -33
-32 -60 -63 -60 -69 0 -6 10 -14 23 -17 20 -6 19 -8 -14 -22 -31 -13 -39 -23
-48 -59 -14 -57 -14 -95 1 -95 9 0 9 -3 0 -12 -17 -17 -15 -64 4 -82 8 -9 12
-21 8 -27 -7 -12 34 -109 46 -109 4 0 21 39 38 88 24 68 29 97 25 132 -6 41
-5 44 11 31 19 -16 18 -16 39 25 9 17 13 41 10 53 -4 15 -2 20 8 16 13 -5 47
38 85 106 6 10 30 33 54 50 l43 31 -22 -36 c-13 -20 -21 -43 -18 -50 3 -8 0
-17 -8 -20 -16 -6 -35 -67 -35 -113 0 -24 5 -33 17 -33 15 0 15 -2 -1 -19 -20
-22 -15 -68 10 -108 8 -12 14 -31 14 -41 0 -11 7 -25 15 -32 8 -7 15 -17 15
-23 0 -18 52 -79 61 -70 4 4 9 40 10 79 2 54 -1 78 -14 98 -17 25 -17 26 3 26
17 0 20 7 20 38 0 21 -5 43 -12 50 -9 9 -9 12 1 12 10 0 12 17 9 72 -2 40 1
87 7 105 l11 32 31 -87 c123 -342 181 -678 190 -1112 5 -270 -3 -441 -33 -678
-9 -68 -14 -125 -12 -128 3 -2 46 -7 96 -10 l92 -7 0 46 c0 75 30 286 55 384
76 298 234 523 465 659 41 24 79 44 83 44 11 0 -1 -70 -14 -86 -5 -6 -7 -18
-3 -27 3 -8 0 -18 -5 -22 -6 -3 -9 -11 -5 -16 3 -5 0 -16 -6 -24 -6 -8 -9 -19
-5 -24 3 -6 -2 -22 -11 -36 -12 -18 -13 -25 -4 -25 9 0 8 -6 -3 -18 -10 -10
-14 -21 -11 -24 3 -4 0 -16 -6 -29 -11 -19 -10 -21 4 -16 22 9 20 -1 -9 -39
-31 -41 -32 -58 -2 -49 64 20 117 71 117 113 0 20 3 22 14 13 12 -10 18 -7 31
19 9 18 15 41 12 51 -3 10 -1 19 5 21 5 2 12 29 15 61 6 56 23 80 23 32 0 -14
5 -25 10 -25 6 0 10 -14 10 -31 0 -19 4 -28 11 -24 7 5 8 -5 3 -31 -6 -32 -5
-36 10 -31 14 6 15 1 10 -33 -5 -33 -4 -40 9 -40 13 0 15 -7 11 -30 -4 -19 -2
-30 5 -30 6 0 11 -16 11 -36 0 -30 3 -34 14 -25 11 9 15 5 20 -20 3 -17 3 -35
0 -41 -8 -12 4 -58 15 -58 14 0 68 91 81 136 11 36 10 45 -9 82 -23 44 -21 48
10 32 18 -10 19 -7 19 38 0 34 -6 57 -20 75 -12 15 -16 28 -10 32 5 3 0 27
-15 60 -23 53 -22 68 3 43 9 -9 12 -9 12 3 1 10 4 9 15 -5 8 -10 21 -16 29
-13 8 3 20 -1 27 -9 8 -10 14 -12 19 -4 5 8 17 3 37 -14 44 -37 54 -34 41 12
-26 93 -77 152 -174 200 -57 28 -66 41 -35 49 11 3 22 11 25 19 3 8 15 14 26
14 28 0 25 19 -6 30 -37 14 -105 12 -134 -5 -14 -8 -28 -14 -31 -15 -3 0 -9
40 -11 90 -4 66 -11 101 -29 137 -29 57 -49 67 -49 24 0 -16 -5 -42 -10 -56
-7 -18 -7 -33 0 -46 8 -15 7 -19 -4 -19 -17 0 -31 -34 -20 -51 4 -7 1 -10 -7
-7 -7 2 -17 19 -22 37 -6 26 -11 30 -22 21 -11 -9 -14 -5 -17 22 -2 24 -8 33
-20 32 -10 -1 -20 7 -23 17 -7 20 -43 44 -53 35 -3 -3 -13 1 -23 10 -10 9 -24
14 -31 11 -7 -2 -24 0 -37 5 -19 7 -22 6 -17 -7 4 -12 1 -15 -12 -11 -48 13
-81 16 -86 7 -11 -17 95 -101 128 -101 24 0 27 -2 16 -15 -10 -13 -10 -19 5
-35 10 -11 24 -20 30 -20 14 0 27 -38 19 -52 -3 -4 -14 -3 -26 3 -22 12 -108
4 -108 -10 0 -5 -15 -12 -32 -16 l-33 -7 45 -19 c24 -11 53 -18 62 -16 11 3
18 0 18 -8 0 -7 12 -18 28 -24 26 -10 27 -10 2 -9 -14 2 -31 -1 -37 -5 -7 -4
-23 -3 -35 4 -16 9 -23 9 -26 0 -2 -6 -19 -11 -38 -11 -19 0 -34 -4 -34 -9 0
-5 -15 -13 -32 -16 -18 -4 -40 -14 -48 -21 -8 -8 -35 -31 -58 -53 -26 -23 -39
-40 -31 -43 8 -3 1 -16 -19 -36 -52 -53 -37 -56 32 -7 108 77 246 125 357 125
62 -1 61 -2 -43 -60 -39 -22 -101 -73 -163 -135 -110 -110 -170 -200 -236
-356 -22 -52 -44 -103 -49 -114 -6 -13 -9 20 -9 100 -4 489 -86 965 -234 1345
-25 63 -43 117 -41 119 2 2 20 -8 39 -23 20 -15 43 -25 50 -22 10 3 15 -1 15
-12 0 -10 23 -40 50 -67 46 -45 52 -48 71 -36 20 12 21 11 15 -15 -6 -23 -1
-34 35 -70 27 -27 47 -40 57 -36 11 4 14 1 9 -10 -5 -15 39 -68 60 -71 4 -1 7
-5 6 -8 -1 -3 20 -28 48 -55 l49 -48 0 55 c0 31 -5 81 -11 113 -10 48 -19 63
-57 96 -43 39 -44 40 -18 40 14 0 26 3 26 8 -1 19 -59 89 -85 102 -18 9 -29
22 -27 31 6 34 -136 114 -189 107 -20 -3 -29 0 -29 9 0 7 -12 13 -27 14 -30 1
-25 3 20 13 16 4 27 13 27 23 0 15 1 15 18 0 20 -18 44 -20 116 -11 38 6 46
10 46 27 0 20 0 20 23 -1 18 -17 36 -22 81 -22 48 0 57 3 52 15 -3 8 -1 15 5
15 5 0 12 -6 15 -14 7 -19 65 -30 75 -14 5 8 11 9 21 1 18 -16 128 -28 128
-15 0 20 -103 123 -143 144 -31 15 -50 18 -83 13 -44 -6 -54 1 -33 22 8 8 1
14 -27 22 -52 14 -97 14 -112 -1 -10 -10 -15 -10 -21 1 -7 10 -19 12 -47 6
-63 -11 -148 -44 -157 -60 -4 -8 -15 -15 -23 -15 -9 0 -27 -9 -41 -20 -14 -11
-30 -17 -36 -13 -5 3 1 11 14 19 13 6 34 26 47 44 19 25 21 34 12 46 -10 12
-7 14 18 14 21 0 35 8 48 28 10 15 17 30 16 35 -1 4 7 7 17 7 11 0 26 8 33 18
7 9 32 30 56 46 52 35 42 46 -41 46 -63 0 -92 -11 -119 -44 -15 -17 -19 -19
-27 -7 -8 12 -16 10 -45 -13 -20 -15 -36 -36 -36 -47 0 -13 -4 -18 -11 -13 -7
4 -20 -4 -30 -17 -10 -13 -19 -19 -19 -12 0 6 5 15 10 18 6 3 10 24 10 46 0
30 -4 39 -17 39 -13 0 -14 3 -5 12 15 15 16 58 1 58 -6 0 -9 7 -6 15 3 8 0 33
-6 57 l-13 42 -21 -34z"/>
</g>
</svg>
